<svg width="52" height="52" viewBox="0 0 52 52" fill="none" xmlns="http://www.w3.org/2000/svg">
<circle cx="26" cy="26" r="26" fill="#CA003D"/>
<path d="M17 24.5L26 34L34 26.5L35 23V21L33.5 19L32 18H30L27.5 19L26 21L25 20L24 18.5L22 18H20L17.5 19.5L17 21.5V24.5Z" fill="white"/>
<path d="M26 35.1615L24.975 34.236C22.2583 31.7516 20.0833 29.5839 18.45 27.7331C16.8167 25.8822 16 24.0064 16 22.1055C16 20.6048 16.5042 19.3501 17.5125 18.3413C18.5208 17.3325 19.7667 16.8281 21.25 16.8281C22.1 16.8281 22.9417 17.0324 23.775 17.4409C24.6083 17.8494 25.35 18.5206 26 19.4543C26.7333 18.5206 27.4917 17.8494 28.275 17.4409C29.0583 17.0324 29.8833 16.8281 30.75 16.8281C32.2333 16.8281 33.4792 17.3325 34.4875 18.3413C35.4958 19.3501 36 20.6048 36 22.1055C36 24.0064 35.1833 25.8822 33.55 27.7331C31.9167 29.5839 29.7417 31.7516 27.025 34.236L26 35.1615ZM26 33.1856C28.5333 30.8512 30.5833 28.8252 32.15 27.1078C33.7167 25.3904 34.5 23.7229 34.5 22.1055C34.5 21.005 34.1458 20.1004 33.4375 19.3918C32.7292 18.6831 31.8333 18.3288 30.75 18.3288C29.9167 18.3288 29.1333 18.5873 28.4 19.1042C27.6667 19.6211 27.0667 20.3631 26.6 21.3302H25.375C24.925 20.3631 24.3292 19.6211 23.5875 19.1042C22.8458 18.5873 22.0667 18.3288 21.25 18.3288C20.15 18.3288 19.25 18.6831 18.55 19.3918C17.85 20.1004 17.5 21.005 17.5 22.1055C17.5 23.7229 18.2833 25.3904 19.85 27.1078C21.4167 28.8252 23.4667 30.8512 26 33.1856Z" fill="white"/>
</svg>
