<svg width="20" height="21" viewBox="0 0 20 21" fill="none" xmlns="http://www.w3.org/2000/svg">
<path d="M5.80566 20.5C5.31365 20.5 4.89545 20.3248 4.55105 19.9743C4.20664 19.6239 4.03444 19.1984 4.03444 18.6977C4.03444 18.1971 4.20664 17.7716 4.55105 17.4212C4.89545 17.0707 5.31365 16.8955 5.80566 16.8955C6.28126 16.8955 6.69537 17.0707 7.04797 17.4212C7.40057 17.7716 7.57688 18.1971 7.57688 18.6977C7.57688 19.1984 7.40467 19.6239 7.06027 19.9743C6.71587 20.3248 6.29766 20.5 5.80566 20.5ZM15.6458 20.5C15.1538 20.5 14.7355 20.3248 14.3911 19.9743C14.0467 19.6239 13.8745 19.1984 13.8745 18.6977C13.8745 18.1971 14.0467 17.7716 14.3911 17.4212C14.7355 17.0707 15.1538 16.8955 15.6458 16.8955C16.1214 16.8955 16.5355 17.0707 16.8881 17.4212C17.2407 17.7716 17.417 18.1971 17.417 18.6977C17.417 19.1984 17.2448 19.6239 16.9004 19.9743C16.556 20.3248 16.1378 20.5 15.6458 20.5ZM4.52644 3.97935L7.23247 9.68648H14.3173L17.3924 3.97935H4.52644ZM2.87823 15.2935L5.65806 10.062L1.91882 2.00188H0V0.5H2.87823L3.78844 2.47747H20L15.2522 11.1884H6.71587L5.33825 13.7916H17.417V15.2935H2.87823ZM7.23247 9.68648H14.3173H7.23247Z" fill="black"/>
</svg>
