<svg width="20" height="21" viewBox="0 0 20 21" fill="none" xmlns="http://www.w3.org/2000/svg">
<g clip-path="url(#clip0_691_746)">
<path fill-rule="evenodd" clip-rule="evenodd" d="M19.9151 9.19397H11.3044V0.5832C10.4383 0.472267 9.56154 0.472267 8.69544 0.5832V9.19397H0.0846654C-0.0282218 10.0607 -0.0282218 10.9385 0.0846654 11.8052H8.69544V20.416C9.56154 20.5269 10.4383 20.5269 11.3044 20.416V11.8052H19.9151C20.028 10.9385 20.028 10.0607 19.9151 9.19397ZM6.08728 5.27764V3.9761H4.77793V5.27608H3.4764V6.58152H4.77637V7.88696H6.08064V6.58308H7.38648V5.27764H6.08728ZM15.2164 3.9761V5.27608H16.5265V6.58152H15.2223V7.88696H13.9121V6.58269H12.6079V5.27725H13.9121V3.9761H15.2164ZM6.08728 14.4103V13.1103H4.77793V14.4103H3.4764V15.7157H4.77637V17.0227H6.08064V15.7212H7.38648V14.4157L6.08728 14.4103ZM15.2164 13.1107V14.4107L16.5265 14.4161V15.7216H15.2223V17.0227H13.9121V15.7161H12.6079V14.4107H13.9121V13.1107H15.2164Z" fill="#CA003D"/>
</g>
<defs>
<clipPath id="clip0_691_746">
<rect width="20" height="20" fill="white" transform="translate(0 0.5)"/>
</clipPath>
</defs>
</svg>
