<svg width="44" height="57" viewBox="0 0 44 57" fill="none" xmlns="http://www.w3.org/2000/svg">
<path d="M4.41936 30.3237V27.3602C3.94312 26.9939 3.63087 26.3865 3.63087 25.6983L3.6267 20.3045L10.5285 24.8611C10.5285 24.8611 11.1613 25.333 11.8715 25.2859C12.6637 25.2338 13.0505 24.6508 13.0793 24.6074L19.799 13.2917C19.8138 13.2672 20.6232 12.0527 20.5963 10.4375C20.5963 7.38216 18.109 4.90572 15.0403 4.90572C13.9229 4.90572 12.8833 5.23459 12.0124 5.79962C12.0124 5.79639 12.036 4.96338 11.2438 4.42188C10.2705 6.09436 9.35457 8.11093 8.60269 10.3392C8.04676 11.9859 7.63214 13.5938 7.35695 15.0956H8.88806C9.20401 15.0878 9.47966 14.9189 9.63578 14.6689L10.0898 13.633C10.4085 12.9001 10.9705 12.3475 11.5857 12.1939C11.8451 12.1293 12.0962 12.0837 12.3065 12.0191C13.6102 11.5325 13.7385 10.3388 13.7487 9.98405C14.0433 10.1335 14.2453 10.437 14.2453 10.7885C14.2453 10.9601 14.1272 11.2557 14.1272 11.2557C13.8372 12.0025 13.1395 12.9213 12.9834 13.0859C12.3431 13.8 11.2392 14.7986 11.2392 14.7986L11.2401 14.799C10.5535 15.4318 10.0796 16.3359 10.0087 17.2326C9.95451 17.9221 10.1213 19.239 10.1421 19.3405L10.1727 19.5176C10.1727 19.6629 10.0546 19.7805 9.90864 19.7805C9.85583 19.7805 9.80673 19.7653 9.76549 19.7385C9.69276 19.6915 8.14729 18.9322 7.23604 18.536V18.5365C5.61367 17.8469 4.04782 17.4244 2.7312 17.4429C2.06317 17.4521 1.4359 17.8718 1.34927 18.6583C1.18944 20.113 1.31777 25.3726 2.10162 27.5262C2.38329 28.2993 3.16204 30.2263 4.41936 30.3237Z" fill="#CA003D"/>
<path d="M22.2685 55.3699C22.1184 55.5323 22.0257 55.7486 22.0257 55.9866C22.0257 56.2583 22.1452 56.5019 22.3342 56.6693C22.3866 56.3077 22.6497 56.0148 22.9958 55.9188C22.9958 55.9188 24.1554 55.6089 24.6089 55.4198C24.8521 55.3183 25.0847 55.0522 25.0939 55.0406C25.4771 54.5803 25.8268 53.8857 26.0483 53.0711C26.1678 52.6311 26.2364 52.203 26.26 51.8091C26.2619 51.781 26.3323 50.9171 25.7346 50.0633C25.2366 49.3516 24.4088 48.9429 23.4804 48.8438V48.6224C24.0516 48.5458 25.2186 48.5264 26.1558 49.7584C26.8521 49.3078 28.24 48.3147 29.3908 46.9093C30.9983 44.9453 31.9369 43.0265 32.535 42.0837C33.0501 41.271 33.7756 40.0289 35.1858 40.0436C36.2435 40.0547 37.101 40.8951 37.1056 41.9472C37.1098 43.5639 35.1265 46.0957 32.7439 48.103L31.9856 47.5979C31.4871 48.2275 30.7023 49.1736 29.9657 49.9835C28.9456 51.1053 28.0121 52.0268 28.0121 52.0268C30.7194 51.6417 33.5778 50.2985 34.8398 49.4983L33.9846 48.9286C34.2204 48.7972 34.4562 48.662 34.6906 48.5191C36.6845 47.3014 38.3226 45.8244 39.541 44.3088C41.5141 41.8545 41.3279 38.9523 41.3279 38.9523C41.3279 36.5096 39.339 34.529 36.8851 34.529H36.8819C36.5761 34.529 35.6621 34.665 35.4925 34.6918L35.4897 32.6148C35.4619 31.9321 34.9088 31.3851 34.2213 31.3643V31.362H32.9987C33.3452 30.3053 34.1217 28.9359 34.521 28.3607C35.3253 27.203 37.183 25.0374 38.6219 25.7039H38.6224C39.0935 26.0217 39.1412 26.608 39.1496 26.6688C39.1496 26.6698 39.3098 27.4345 38.8183 28.6508C38.8188 28.6513 38.8192 28.6513 38.8197 28.6518C38.7034 28.9451 37.8459 30.262 37.8765 31.3593C37.901 32.2453 38.2142 33.0544 38.7553 33.6701C39.4525 31.7652 40.7608 30.4986 42.4286 28.9848C44.1181 27.4516 43.9977 25.661 43.9977 25.661C43.9703 23.7976 42.4457 22.2948 40.5672 22.2948C39.9001 22.2948 39.2783 22.4844 38.7516 22.8124L36.1008 24.4286C35.9776 24.4941 35.8367 24.5314 35.6871 24.5314C35.4281 24.5314 35.221 24.4203 35.0348 24.2422C33.676 22.9429 32.2631 20.4729 28.6954 20.139C29.0183 19.7857 29.5381 19.5306 30.1468 19.4549C30.1468 19.4549 30.3548 19.4231 30.8686 19.4171C30.8686 19.4171 34.3223 19.4895 34.3566 19.4895C35.7742 19.4895 37.0584 19.0869 37.9937 18.4347C39.1621 17.6662 39.9436 16.3618 39.9867 14.8734L37.8102 16.0385C37.7723 15.9269 37.7509 15.8083 37.7509 15.6842C37.7509 15.2903 37.959 14.9453 38.2712 14.7507C38.3402 14.7078 40.8127 13.426 41.2333 13.1105C42.1316 12.4361 42.8085 11.3656 42.833 9.93757C42.8474 9.10594 42.5745 8.33428 42.1344 7.69729C42.0469 8.67837 41.2204 9.44819 40.2118 9.44819H29.7734C29.8916 9.14561 30.2418 8.26001 30.4114 7.95974C30.6235 7.58429 30.9979 7.46713 30.9979 7.46713C31.6182 7.22405 31.8628 6.68808 31.8628 6.68808H31.236L32.0532 5.90489C31.627 5.94225 31.2212 5.73238 30.2057 5.25222C29.4496 4.89475 29.054 4.90306 28.9562 4.90536C28.2609 4.92197 27.9537 5.40905 27.8713 5.73007C27.8291 5.89566 27.5891 6.71115 27.5025 7.04509C27.3204 7.74618 27.4418 8.06906 27.4793 8.16407C27.5831 8.42883 27.799 8.62348 28.0654 8.71388L27.8768 9.16037C27.2366 9.02568 26.2734 8.22542 25.3589 7.32737L27.3357 4.02576L27.6188 3.9944C28.0274 3.93813 28.2632 3.53915 28.4179 3.24534C28.5268 3.03916 28.5296 2.81776 28.3651 2.66555L28.2289 2.53409L29.5098 0.378684L28.8654 0L27.5553 2.2043C26.9035 2.04056 26.3499 2.13696 26.3499 2.13696L20.6405 2.95659C20.3908 2.97873 20.1527 3.21535 20.1926 3.48057C20.4047 4.88184 21.2697 6.73651 22.6419 8.57551L24.1535 6.06817C23.3887 5.22731 22.8337 4.54513 22.8337 4.54513L26.8345 3.40031L10.2948 31.0249L9.48592 30.5659L9.49333 33.1692L11.7467 31.8491L10.9485 31.3962L14.2632 25.8598C14.2632 25.8598 14.3526 25.7002 14.486 25.602C14.6051 25.5143 14.7575 25.459 14.9168 25.4608C15.0841 25.4627 15.2444 25.5125 15.3949 25.6587C16.6263 26.7985 18.1347 27.792 19.8636 28.5369C20.3357 28.7403 20.8101 28.9179 21.2845 29.0729C21.2794 28.9585 21.2743 28.8441 21.2743 28.7283C21.2743 26.018 22.6664 23.6518 24.7368 22.3774L24.8618 22.9065C22.0883 25.2482 22.2782 28.459 22.7109 29.91C23.6509 33.064 26.3536 34.8338 29.2448 34.8431C29.4941 34.844 32.6818 34.7522 32.6818 34.7522C32.7861 34.7522 32.8704 34.8362 32.8704 34.9399V35.3717C31.7456 35.7605 30.5494 36.2822 29.3176 36.915C27.2032 38.0008 22.6845 40.474 23.7407 42.8969C23.6124 42.902 23.4836 42.9084 23.3534 42.9186C23.145 42.6072 23.0583 42.2544 23.0583 41.8379C23.0583 41.4163 23.1681 40.3453 24.7261 39.0127C25.6624 38.2116 28.6987 36.1055 28.6987 36.1055C28.5601 36.1147 28.4207 36.1198 28.2799 36.1198C26.7265 36.1198 25.2922 35.5838 24.1331 34.6789C24.1331 34.6789 20.5131 37.0958 19.5125 40.0146C18.9422 41.6778 19.7506 43.0994 20.1824 43.6976C20.0679 43.7484 19.9563 43.801 19.8465 43.8554C18.9987 43.0104 17.519 40.7576 20.0299 37.4081C21.4545 35.5077 22.9388 34.3698 23.4021 34.0239C22.3523 32.9404 21.6241 31.5119 21.3869 29.911C21.3869 29.911 16.8505 32.4806 15.2856 38.2111C14.0385 42.7784 16.6666 44.836 17.7553 45.4582C17.6974 45.5288 17.6418 45.5998 17.589 45.6722C16.8533 45.4195 16.2427 44.9495 15.6826 44.4347C14.6264 44.5385 12.0802 44.592 9.92046 42.9513C9.3386 42.5095 8.375 41.4154 8.47552 39.7166C8.57189 38.0903 9.38307 37.0026 9.91861 36.3869C9.95382 36.3463 10.0011 36.3154 10.0585 36.3154C10.1544 36.3154 10.2322 36.3929 10.2322 36.4883C10.2322 36.5091 10.2234 36.546 10.2234 36.546L10.1266 36.9657C10.8303 36.4736 10.7632 35.3901 10.7632 35.3666C10.7632 35.1212 10.5635 34.9219 10.3166 34.9219C10.2253 34.9219 10.1405 34.9496 10.0701 34.9962L6.27638 37.5455L7.97102 31.8131C7.97102 31.8131 7.0292 31.761 7.01715 31.761C6.84852 31.761 6.70166 31.851 6.62013 31.9843L0 42.575L3.25447 41.6151L2.7194 43.9965L4.59934 42.949L4.59981 42.9481C6.52747 48.2617 11.8597 52.0817 18.1366 52.0817C19.7821 52.0817 21.3623 51.8183 22.8341 51.335C22.8355 51.335 22.8364 51.3354 22.8378 51.335C22.8661 51.3271 22.8888 51.3244 22.9152 51.3244C23.0431 51.3244 23.1589 51.4194 23.1797 51.5305C23.2358 51.829 23.1927 52.1297 23.1232 52.3871C23.0472 52.6684 22.9536 52.8594 22.8008 53.0835C22.7202 53.2012 22.5821 53.2736 22.4329 53.2925L19.8715 53.519C18.7546 53.62 17.879 54.5549 17.879 55.6933C17.879 55.8722 17.9012 56.0457 17.942 56.2122C18.2755 55.5134 18.9709 55.0194 19.7867 54.9691C19.5139 55.2136 19.3415 55.5669 19.3415 55.9608C19.3415 56.3805 19.5366 56.7551 19.8409 57C20.0577 56.1384 20.7865 55.4811 21.6903 55.3667C21.8233 55.3501 22.0118 55.3358 22.2685 55.3699Z" fill="#CA003D"/>
</svg>
