<svg width="22" height="22" viewBox="0 0 22 22" fill="none" xmlns="http://www.w3.org/2000/svg">
<g clip-path="url(#clip0_691_1027)">
<path d="M11.0018 20.515L9.93738 19.554C7.11623 16.974 4.85757 14.723 3.16142 12.8009C1.46526 10.8789 0.617188 8.93091 0.617188 6.95694C0.617188 5.39854 1.14075 4.09554 2.18786 3.04795C3.23498 2.00036 4.52873 1.47656 6.06911 1.47656C6.9518 1.47656 7.82584 1.68868 8.69123 2.11291C9.55661 2.53714 10.3268 3.23409 11.0018 4.20376C11.7633 3.23409 12.5508 2.53714 13.3643 2.11291C14.1778 1.68868 15.0345 1.47656 15.9345 1.47656C17.4749 1.47656 18.7686 2.00036 19.8157 3.04795C20.8629 4.09554 21.3864 5.39854 21.3864 6.95694C21.3864 8.93091 20.5383 10.8789 18.8422 12.8009C17.146 14.723 14.8874 16.974 12.0662 19.554L11.0018 20.515ZM11.0018 18.4631C13.6326 16.039 15.7614 13.9351 17.3883 12.1516C19.0153 10.3681 19.8287 8.63655 19.8287 6.95694C19.8287 5.81411 19.4609 4.87474 18.7254 4.13883C17.9898 3.40292 17.0595 3.03496 15.9345 3.03496C15.0691 3.03496 14.2556 3.30335 13.4941 3.84014C12.7326 4.37692 12.1095 5.14746 11.6249 6.15176H10.3528C9.88546 5.14746 9.26671 4.37692 8.49651 3.84014C7.72632 3.30335 6.91719 3.03496 6.06911 3.03496C4.9268 3.03496 3.99219 3.40292 3.26526 4.13883C2.53834 4.87474 2.17488 5.81411 2.17488 6.95694C2.17488 8.63655 2.98834 10.3681 4.61526 12.1516C6.24219 13.9351 8.37103 16.039 11.0018 18.4631Z" fill="black"/>
</g>
<defs>
<clipPath id="clip0_691_1027">
<rect width="20.7692" height="20.7692" fill="white" transform="translate(0.617188 0.617188)"/>
</clipPath>
</defs>
</svg>
