<svg width="20" height="19" viewBox="0 0 20 19" fill="none" xmlns="http://www.w3.org/2000/svg">
<path d="M10 18.6654L8.975 17.7399C6.25833 15.2555 4.08333 13.0878 2.45 11.237C0.816666 9.38615 0 7.51029 0 5.60943C0 4.10875 0.504167 2.85401 1.5125 1.84522C2.52083 0.836427 3.76667 0.332031 5.25 0.332031C6.1 0.332031 6.94167 0.536291 7.775 0.94481C8.60833 1.35333 9.35 2.02447 10 2.95823C10.7333 2.02447 11.4917 1.35333 12.275 0.94481C13.0583 0.536291 13.8833 0.332031 14.75 0.332031C16.2333 0.332031 17.4792 0.836427 18.4875 1.84522C19.4958 2.85401 20 4.10875 20 5.60943C20 7.51029 19.1833 9.38615 17.55 11.237C15.9167 13.0878 13.7417 15.2555 11.025 17.7399L10 18.6654ZM10 16.6895C12.5333 14.3551 14.5833 12.3292 16.15 10.6117C17.7167 8.89426 18.5 7.22683 18.5 5.60943C18.5 4.50893 18.1458 3.60435 17.4375 2.8957C16.7292 2.18704 15.8333 1.83271 14.75 1.83271C13.9167 1.83271 13.1333 2.09116 12.4 2.60807C11.6667 3.12497 11.0667 3.86697 10.6 4.83408H9.375C8.925 3.86697 8.32917 3.12497 7.5875 2.60807C6.84583 2.09116 6.06667 1.83271 5.25 1.83271C4.15 1.83271 3.25 2.18704 2.55 2.8957C1.85 3.60435 1.5 4.50893 1.5 5.60943C1.5 7.22683 2.28333 8.89426 3.85 10.6117C5.41667 12.3292 7.46667 14.3551 10 16.6895Z" fill="black"/>
</svg>
