<svg width="106" height="32" viewBox="0 0 106 32" fill="none" xmlns="http://www.w3.org/2000/svg">
<path fill-rule="evenodd" clip-rule="evenodd" d="M12.2098 6.21306H6.59375V8.05306H10.1938C10.1084 8.41573 9.98575 8.7464 9.82575 9.04506C9.67642 9.33306 9.49508 9.57306 9.28175 9.76506C8.98308 10.0424 8.62042 10.2717 8.19375 10.4531C7.77775 10.6237 7.26575 10.7091 6.65775 10.7091C6.12442 10.7091 5.62308 10.6184 5.15375 10.4371C4.68442 10.2451 4.26842 9.9784 3.90575 9.63706C3.55375 9.29573 3.27108 8.88506 3.05775 8.40506C2.85508 7.9144 2.75375 7.3704 2.75375 6.77306C2.75375 6.17573 2.85508 5.63706 3.05775 5.15706C3.27108 4.6664 3.55375 4.2504 3.90575 3.90906C4.25775 3.56773 4.66842 3.3064 5.13775 3.12506C5.60708 2.93306 6.10308 2.83706 6.62575 2.83706C7.26575 2.83706 7.81508 2.94373 8.27375 3.15706C8.73242 3.35973 9.14842 3.6584 9.52175 4.05306L11.0098 2.59706C10.4871 2.03173 9.85775 1.58906 9.12175 1.26906C8.39642 0.949063 7.56975 0.789062 6.64175 0.789062C5.80975 0.789062 5.02575 0.938396 4.28975 1.23706C3.55375 1.53573 2.91375 1.95173 2.36975 2.48506C1.82575 3.0184 1.39375 3.65306 1.07375 4.38906C0.753751 5.1144 0.59375 5.90906 0.59375 6.77306C0.59375 7.63706 0.753751 8.43706 1.07375 9.17306C1.39375 9.8984 1.82575 10.5277 2.36975 11.0611C2.91375 11.5944 3.55375 12.0104 4.28975 12.3091C5.02575 12.6077 5.80975 12.7571 6.64175 12.7571C7.55908 12.7571 8.37508 12.6077 9.08975 12.3091C9.80442 12.0104 10.4178 11.5891 10.9298 11.0451C11.4098 10.5331 11.7618 9.95173 11.9858 9.30106C12.2098 8.6504 12.3218 7.95706 12.3218 7.22106C12.3218 7.03973 12.3111 6.8584 12.2898 6.67706C12.2684 6.49573 12.2418 6.34106 12.2098 6.21306ZM21.3709 1.04506H14.1069V12.5011H16.2669V7.92506H20.8589V5.87706H16.2669V3.09306H21.3709V1.04506ZM30.2928 1.04506H23.0288V12.5011H25.1888V7.92506H29.7808V5.87706H25.1888V3.09306H30.2928V1.04506ZM38.1938 12.2931C38.9298 12.6024 39.7244 12.7571 40.5778 12.7571C41.4311 12.7571 42.2204 12.6024 42.9458 12.2931C43.6818 11.9837 44.3164 11.5624 44.8498 11.0291C45.3831 10.4851 45.7991 9.8504 46.0978 9.12506C46.4071 8.38906 46.5618 7.60506 46.5618 6.77306C46.5618 5.94106 46.4071 5.1624 46.0978 4.43706C45.7991 3.70106 45.3831 3.0664 44.8498 2.53306C44.3164 1.98906 43.6818 1.5624 42.9458 1.25306C42.2204 0.943729 41.4311 0.789062 40.5778 0.789062C39.7244 0.789062 38.9298 0.943729 38.1938 1.25306C37.4684 1.5624 36.8391 1.98906 36.3058 2.53306C35.7724 3.0664 35.3511 3.70106 35.0418 4.43706C34.7431 5.1624 34.5938 5.94106 34.5938 6.77306C34.5938 7.60506 34.7431 8.38906 35.0418 9.12506C35.3511 9.8504 35.7724 10.4851 36.3058 11.0291C36.8391 11.5624 37.4684 11.9837 38.1938 12.2931ZM42.0658 10.4211C41.6071 10.6131 41.1111 10.7091 40.5778 10.7091C40.0444 10.7091 39.5431 10.6131 39.0737 10.4211C38.6151 10.2291 38.2098 9.9624 37.8577 9.62106C37.5164 9.27973 37.2444 8.86906 37.0418 8.38906C36.8498 7.8984 36.7537 7.35973 36.7537 6.77306C36.7537 6.1864 36.8498 5.65306 37.0418 5.17306C37.2444 4.6824 37.5164 4.2664 37.8577 3.92506C38.2098 3.58373 38.6151 3.31706 39.0737 3.12506C39.5431 2.93306 40.0444 2.83706 40.5778 2.83706C41.1111 2.83706 41.6071 2.93306 42.0658 3.12506C42.5351 3.31706 42.9404 3.58373 43.2818 3.92506C43.6338 4.2664 43.9058 4.6824 44.0978 5.17306C44.3004 5.65306 44.4018 6.1864 44.4018 6.77306C44.4018 7.35973 44.3004 7.8984 44.0978 8.38906C43.9058 8.86906 43.6338 9.27973 43.2818 9.62106C42.9404 9.9624 42.5351 10.2291 42.0658 10.4211ZM55.574 1.04506H48.31V12.5011H50.47V7.92506H55.062V5.87706H50.47V3.09306H55.574V1.04506ZM64.4959 1.04506H57.2319V12.5011H59.3919V7.92506H63.9839V5.87706H59.3919V3.09306H64.4959V1.04506ZM68.3138 1.04506H66.1537V12.5011H68.3138V1.04506ZM78.4823 12.2291C79.2503 11.8664 79.9169 11.3437 80.4823 10.6611L78.9463 9.20506C78.5622 9.68506 78.1196 10.0584 77.6183 10.3251C77.1276 10.5811 76.5622 10.7091 75.9222 10.7091C75.3889 10.7091 74.8876 10.6184 74.4183 10.4371C73.9489 10.2451 73.5383 9.9784 73.1862 9.63706C72.8449 9.29573 72.5729 8.88506 72.3703 8.40506C72.1676 7.9144 72.0663 7.3704 72.0663 6.77306C72.0663 6.17573 72.1676 5.63706 72.3703 5.15706C72.5729 4.6664 72.8449 4.2504 73.1862 3.90906C73.5383 3.56773 73.9489 3.3064 74.4183 3.12506C74.8876 2.93306 75.3889 2.83706 75.9222 2.83706C76.5303 2.83706 77.0529 2.9544 77.4902 3.18906C77.9382 3.42373 78.3329 3.7384 78.6743 4.13306L80.1943 2.66106C79.6503 2.05306 79.0263 1.58906 78.3223 1.26906C77.6289 0.949063 76.8236 0.789062 75.9062 0.789062C75.0529 0.789062 74.2583 0.943729 73.5222 1.25306C72.7969 1.5624 72.1676 1.98373 71.6343 2.51706C71.1009 3.0504 70.6796 3.68506 70.3703 4.42106C70.0609 5.1464 69.9062 5.9304 69.9062 6.77306C69.9062 7.61573 70.0609 8.40506 70.3703 9.14106C70.6796 9.8664 71.1009 10.4957 71.6343 11.0291C72.1676 11.5624 72.7969 11.9837 73.5222 12.2931C74.2583 12.6024 75.0529 12.7571 75.9062 12.7571C76.8556 12.7571 77.7142 12.5811 78.4823 12.2291ZM84.3763 1.04506H82.2162V12.5011H84.3763V1.04506ZM92.493 1.04506H90.029L85.725 12.5011H88.109L89.053 9.76506H93.469L94.413 12.5011H96.797L92.493 1.04506ZM91.741 4.91706L92.765 7.78106H89.757L90.781 4.91706L91.197 3.52506H91.325L91.741 4.91706ZM100.298 1.04506H98.1381V12.5011H105.146V10.4531H100.298V1.04506ZM8.41775 19.5451H1.15375V31.0011H3.31375V26.4251H7.90575V24.3771H3.31375V21.5931H8.41775V19.5451ZM14.9305 19.5451H12.4665L8.1625 31.0011H10.5465L11.4905 28.2651H15.9065L16.8505 31.0011H19.2345L14.9305 19.5451ZM14.1785 23.4171L15.2025 26.2811H12.1945L13.2185 23.4171L13.6345 22.0251H13.7625L14.1785 23.4171ZM23.0876 19.5451H20.5756V31.0011H22.7036V25.0971L22.5756 22.8891H22.7036L27.5676 31.0011H29.8396V19.5451H27.6956V25.0171L27.8236 27.2251H27.6956L23.0876 19.5451ZM34.2341 31.0491C34.6821 31.1877 35.1515 31.2571 35.6421 31.2571C36.0901 31.2571 36.5488 31.1877 37.0181 31.0491C37.4875 30.9104 37.9088 30.7024 38.2821 30.4251C38.6555 30.1477 38.9595 29.7957 39.1941 29.3691C39.4395 28.9317 39.5621 28.4144 39.5621 27.8171C39.5621 27.3371 39.4875 26.9157 39.3381 26.5531C39.1995 26.1797 38.9915 25.8491 38.7141 25.5611C38.4475 25.2731 38.1221 25.0277 37.7381 24.8251C37.3648 24.6117 36.9488 24.4251 36.4901 24.2651L35.7701 24.0251C35.1195 23.8011 34.6448 23.5717 34.3461 23.3371C34.0475 23.0917 33.8981 22.7984 33.8981 22.4571C33.8981 22.1051 34.0528 21.8224 34.3621 21.6091C34.6715 21.3851 35.0608 21.2731 35.5301 21.2731C36.0208 21.2731 36.4048 21.4011 36.6821 21.6571C36.9701 21.9131 37.1675 22.2011 37.2741 22.5211L39.1781 21.7211C39.0928 21.4651 38.9595 21.1931 38.7781 20.9051C38.5968 20.6171 38.3568 20.3557 38.0581 20.1211C37.7701 19.8757 37.4128 19.6784 36.9861 19.5291C36.5701 19.3691 36.0741 19.2891 35.4981 19.2891C34.9435 19.2891 34.4368 19.3744 33.9781 19.5451C33.5301 19.7051 33.1408 19.9344 32.8101 20.2331C32.4901 20.5211 32.2395 20.8624 32.0581 21.2571C31.8875 21.6411 31.8021 22.0571 31.8021 22.5051C31.8021 22.9424 31.8821 23.3371 32.0421 23.6891C32.2128 24.0304 32.4261 24.3291 32.6821 24.5851C32.9381 24.8411 33.2208 25.0597 33.5301 25.2411C33.8501 25.4224 34.1648 25.5664 34.4741 25.6731L35.1781 25.9291C35.5941 26.0784 35.9408 26.2224 36.2181 26.3611C36.5061 26.4997 36.7355 26.6437 36.9061 26.7931C37.0875 26.9424 37.2155 27.1024 37.2901 27.2731C37.3648 27.4437 37.4021 27.6357 37.4021 27.8491C37.4021 28.0731 37.3541 28.2704 37.2581 28.4411C37.1621 28.6117 37.0288 28.7557 36.8581 28.8731C36.6981 28.9797 36.5115 29.0651 36.2981 29.1291C36.0955 29.1824 35.8821 29.2091 35.6581 29.2091C35.0501 29.2091 34.5595 29.0224 34.1861 28.6491C33.8128 28.2651 33.5515 27.7851 33.4021 27.2091L31.3701 28.0091C31.5301 28.5424 31.7488 29.0117 32.0261 29.4171C32.3035 29.8117 32.6288 30.1477 33.0021 30.4251C33.3755 30.7024 33.7861 30.9104 34.2341 31.0491ZM43.5013 19.5451H41.3413V31.0011H43.5013V26.1691H48.3173V31.0011H50.4772V19.5451H48.3173V24.1211H43.5013V19.5451ZM55.6625 30.7931C56.3985 31.1024 57.1932 31.2571 58.0465 31.2571C58.8998 31.2571 59.6892 31.1024 60.4145 30.7931C61.1505 30.4837 61.7852 30.0624 62.3185 29.5291C62.8518 28.9851 63.2678 28.3504 63.5665 27.6251C63.8758 26.8891 64.0305 26.1051 64.0305 25.2731C64.0305 24.4411 63.8758 23.6624 63.5665 22.9371C63.2678 22.2011 62.8518 21.5664 62.3185 21.0331C61.7852 20.4891 61.1505 20.0624 60.4145 19.7531C59.6892 19.4437 58.8998 19.2891 58.0465 19.2891C57.1932 19.2891 56.3985 19.4437 55.6625 19.7531C54.9372 20.0624 54.3078 20.4891 53.7745 21.0331C53.2412 21.5664 52.8198 22.2011 52.5105 22.9371C52.2118 23.6624 52.0625 24.4411 52.0625 25.2731C52.0625 26.1051 52.2118 26.8891 52.5105 27.6251C52.8198 28.3504 53.2412 28.9851 53.7745 29.5291C54.3078 30.0624 54.9372 30.4837 55.6625 30.7931ZM59.5345 28.9211C59.0758 29.1131 58.5798 29.2091 58.0465 29.2091C57.5132 29.2091 57.0118 29.1131 56.5425 28.9211C56.0838 28.7291 55.6785 28.4624 55.3265 28.1211C54.9852 27.7797 54.7132 27.3691 54.5105 26.8891C54.3185 26.3984 54.2225 25.8597 54.2225 25.2731C54.2225 24.6864 54.3185 24.1531 54.5105 23.6731C54.7132 23.1824 54.9852 22.7664 55.3265 22.4251C55.6785 22.0837 56.0838 21.8171 56.5425 21.6251C57.0118 21.4331 57.5132 21.3371 58.0465 21.3371C58.5798 21.3371 59.0758 21.4331 59.5345 21.6251C60.0038 21.8171 60.4092 22.0837 60.7505 22.4251C61.1025 22.7664 61.3745 23.1824 61.5665 23.6731C61.7692 24.1531 61.8705 24.6864 61.8705 25.2731C61.8705 25.8597 61.7692 26.3984 61.5665 26.8891C61.3745 27.3691 61.1025 27.7797 60.7505 28.1211C60.4092 28.4624 60.0038 28.7291 59.5345 28.9211ZM69.8108 19.5451H65.7787V31.0011H67.9388V26.7931H69.8108C70.3548 26.7931 70.8614 26.7077 71.3307 26.5371C71.8108 26.3557 72.2268 26.1051 72.5788 25.7851C72.9307 25.4651 73.2081 25.0864 73.4108 24.6491C73.6134 24.2011 73.7148 23.7051 73.7148 23.1611C73.7148 22.6277 73.6134 22.1424 73.4108 21.7051C73.2081 21.2571 72.9307 20.8731 72.5788 20.5531C72.2268 20.2331 71.8108 19.9877 71.3307 19.8171C70.8614 19.6357 70.3548 19.5451 69.8108 19.5451ZM71.1227 24.2651C70.8347 24.5851 70.4081 24.7451 69.8428 24.7451H67.9388V21.5931H69.8428C70.1308 21.5931 70.3814 21.6357 70.5947 21.7211C70.8081 21.8064 70.9841 21.9237 71.1227 22.0731C71.2721 22.2117 71.3788 22.3771 71.4427 22.5691C71.5174 22.7611 71.5547 22.9584 71.5547 23.1611C71.5547 23.5771 71.4108 23.9451 71.1227 24.2651Z" fill="black"/>
</svg>
