<svg width="20" height="21" viewBox="0 0 20 21" fill="none" xmlns="http://www.w3.org/2000/svg">
<path d="M10 9.96055C8.625 9.96055 7.5 9.51906 6.625 8.63607C5.75 7.75309 5.3125 6.61782 5.3125 5.23027C5.3125 3.84273 5.75 2.70746 6.625 1.82448C7.5 0.941492 8.625 0.5 10 0.5C11.375 0.5 12.5 0.941492 13.375 1.82448C14.25 2.70746 14.6875 3.84273 14.6875 5.23027C14.6875 6.61782 14.25 7.75309 13.375 8.63607C12.5 9.51906 11.375 9.96055 10 9.96055ZM0 20.0833V17.119C0 16.3201 0.197917 15.6369 0.59375 15.0692C0.989583 14.5016 1.5 14.0706 2.125 13.7763C3.52083 13.1456 4.85938 12.6726 6.14063 12.3572C7.42188 12.0419 8.70833 11.8842 10 11.8842C11.2917 11.8842 12.5729 12.0471 13.8438 12.373C15.1146 12.6989 16.4479 13.1666 17.8438 13.7763C18.4896 14.0706 19.0104 14.5016 19.4062 15.0692C19.8021 15.6369 20 16.3201 20 17.119V20.0833H0ZM1.875 18.1912H18.125V17.119C18.125 16.7827 18.026 16.462 17.8281 16.1572C17.6302 15.8524 17.3854 15.6264 17.0938 15.4792C15.7604 14.8275 14.5417 14.3807 13.4375 14.139C12.3333 13.8972 11.1875 13.7763 10 13.7763C8.8125 13.7763 7.65625 13.8972 6.53125 14.139C5.40625 14.3807 4.1875 14.8275 2.875 15.4792C2.58333 15.6264 2.34375 15.8524 2.15625 16.1572C1.96875 16.462 1.875 16.7827 1.875 17.119V18.1912ZM10 8.06844C10.8125 8.06844 11.4844 7.80039 12.0156 7.26429C12.5469 6.72819 12.8125 6.05019 12.8125 5.23027C12.8125 4.41036 12.5469 3.73235 12.0156 3.19626C11.4844 2.66016 10.8125 2.39211 10 2.39211C9.1875 2.39211 8.51562 2.66016 7.98438 3.19626C7.45312 3.73235 7.1875 4.41036 7.1875 5.23027C7.1875 6.05019 7.45312 6.72819 7.98438 7.26429C8.51562 7.80039 9.1875 8.06844 10 8.06844Z" fill="black"/>
</svg>
