<svg width="24" height="18" viewBox="0 0 24 18" fill="none" xmlns="http://www.w3.org/2000/svg">
<path d="M23.5006 3.50415C23.3647 3.01938 23.1 2.58049 22.7346 2.23415C22.3589 1.87715 21.8984 1.62178 21.3966 1.49215C19.5186 0.997146 11.9946 0.997146 11.9946 0.997146C8.85795 0.961459 5.72205 1.11842 2.60462 1.46715C2.10281 1.60636 1.64318 1.86743 1.26662 2.22715C0.896617 2.58315 0.628617 3.02215 0.488617 3.50315C0.15231 5.31489 -0.0110908 7.15449 0.000617183 8.99715C-0.0113828 10.8381 0.151617 12.6771 0.488617 14.4911C0.625617 14.9701 0.892617 15.4071 1.26362 15.7601C1.63462 16.1131 2.09662 16.3681 2.60462 16.5031C4.50762 16.9971 11.9946 16.9971 11.9946 16.9971C15.1353 17.0329 18.2752 16.8759 21.3966 16.5271C21.8984 16.3975 22.3589 16.1421 22.7346 15.7851C23.0999 15.4389 23.3643 14.9999 23.4996 14.5151C23.8447 12.7041 24.0125 10.8637 24.0006 9.02015C24.0266 7.16875 23.859 5.31971 23.5006 3.50315V3.50415ZM9.60262 12.4211V5.57415L15.8626 8.99815L9.60262 12.4211Z" fill="black" fill-opacity="0.5"/>
</svg>
